<?xml version="1.0" encoding="UTF-8" standalone="no"?>
<!-- Created with Inkscape (http://www.inkscape.org/) -->

<svg
   version="1.1"
   id="svg2"
   xml:space="preserve"
   width="308"
   height="103.37333"
   viewBox="0 0 308 103.37333"
   sodipodi:docname="ARCH_logo_1.eps"
   xmlns:inkscape="http://www.inkscape.org/namespaces/inkscape"
   xmlns:sodipodi="http://sodipodi.sourceforge.net/DTD/sodipodi-0.dtd"
   xmlns="http://www.w3.org/2000/svg"
   xmlns:svg="http://www.w3.org/2000/svg"><defs id="defs6"><linearGradient id="archGrad" x1="0" y1="0" x2="1" y2="0"><stop offset="0" stop-color="#2563eb"/><stop offset="1" stop-color="#0d9488"/></linearGradient></defs><sodipodi:namedview
     id="namedview4"
     pagecolor="#ffffff"
     bordercolor="#666666"
     borderopacity="1.0"
     inkscape:pageshadow="2"
     inkscape:pageopacity="0.0"
     inkscape:pagecheckerboard="0" /><g
     id="g8"
     inkscape:groupmode="layer"
     inkscape:label="ink_ext_XXXXXX"
     transform="matrix(1.3333333,0,0,-1.3333333,0,103.37333)"><g
       id="g10"
       transform="scale(0.1)"><path
         d="M 1907.49,574.977 C 1706.72,690.352 1443.37,760.32 1155,760.32 865.559,760.32 601.309,689.828 400.266,573.68"
         style="fill:none;stroke:url(#archGrad);stroke-width:30;stroke-linecap:butt;stroke-linejoin:miter;stroke-miterlimit:4;stroke-dasharray:none;stroke-opacity:1"
         id="path12" /><path
         d="M 863.762,15.3203 V 574.941"
         style="fill:none;stroke:#464648;stroke-width:30;stroke-linecap:round;stroke-linejoin:miter;stroke-miterlimit:4;stroke-dasharray:none;stroke-opacity:1"
         id="path14" /><path
         d="m 863.176,575.68 c 220.154,0 398.624,-65.813 398.624,-146.989 0,-81.175 -178.47,-146.988 -398.624,-146.988"
         style="fill:none;stroke:#464648;stroke-width:30;stroke-linecap:round;stroke-linejoin:miter;stroke-miterlimit:4;stroke-dasharray:none;stroke-opacity:1"
         id="path16" /><path
         d="M 399.441,574.977 C 637.027,438.441 786.957,238.324 786.957,15.3203"
         style="fill:none;stroke:#464648;stroke-width:30;stroke-linecap:round;stroke-linejoin:miter;stroke-miterlimit:4;stroke-dasharray:none;stroke-opacity:1"
         id="path18" /><path
         d="m 693.035,311.91 c -90.894,11.922 -188.855,18.41 -290.961,18.41 -102.976,0 -201.738,-6.601 -293.285,-18.715"
         style="fill:none;stroke:#464648;stroke-width:30;stroke-linecap:round;stroke-linejoin:miter;stroke-miterlimit:4;stroke-dasharray:none;stroke-opacity:1"
         id="path20" /><path
         d="m 1264.22,15 c 0,112.031 -159.74,210.414 -400.466,266.348"
         style="fill:none;stroke:#464648;stroke-width:30;stroke-linecap:round;stroke-linejoin:miter;stroke-miterlimit:4;stroke-dasharray:none;stroke-opacity:1"
         id="path22" /><path
         d="M 402.512,574.957 C 164.922,438.422 15,238.305 15,15.3008"
         style="fill:none;stroke:#464648;stroke-width:30;stroke-linecap:round;stroke-linejoin:miter;stroke-miterlimit:4;stroke-dasharray:none;stroke-opacity:1"
         id="path24" /><path
         d="M 1682.03,574.977 C 1800.83,439.008 1875.8,239.723 1875.8,17.6523"
         style="fill:none;stroke:#464648;stroke-width:30;stroke-linecap:round;stroke-linejoin:miter;stroke-miterlimit:4;stroke-dasharray:none;stroke-opacity:1"
         id="path26" /><path
         d="m 1829.47,310.445 c 93.97,12.852 195.71,19.875 301.93,19.875 19.29,0 38.43,-0.226 57.41,-0.683"
         style="fill:none;stroke:#464648;stroke-width:30;stroke-linecap:round;stroke-linejoin:miter;stroke-miterlimit:4;stroke-dasharray:none;stroke-opacity:1"
         id="path28" /><path
         d="M 1907.49,574.957 C 2145.08,438.422 2295,238.305 2295,15.3008"
         style="fill:none;stroke:#464648;stroke-width:30;stroke-linecap:round;stroke-linejoin:miter;stroke-miterlimit:4;stroke-dasharray:none;stroke-opacity:1"
         id="path30" /><path
         d="M 1544.24,574.961 C 1425.44,506.695 1350.47,406.637 1350.47,295.137"
         style="fill:none;stroke:#464648;stroke-width:30;stroke-linecap:round;stroke-linejoin:miter;stroke-miterlimit:4;stroke-dasharray:none;stroke-opacity:1"
         id="path32" /><path
         d="M 1544.24,15.3125 C 1425.44,83.5781 1350.47,183.637 1350.47,295.137"
         style="fill:none;stroke:#464648;stroke-width:30;stroke-linecap:round;stroke-linejoin:miter;stroke-miterlimit:4;stroke-dasharray:none;stroke-opacity:1"
         id="path34" /></g></g></svg>
